<?xml version="1.0" encoding="UTF-8" standalone="no" ?>
<!DOCTYPE svg PUBLIC "-//W3C//DTD SVG 1.1//EN" "http://www.w3.org/Graphics/SVG/1.1/DTD/svg11.dtd">
<svg xmlns="http://www.w3.org/2000/svg" xmlns:xlink="http://www.w3.org/1999/xlink" version="1.1" width="1280" height="1024" viewBox="0 0 1280 1024" xml:space="preserve">
<desc>Created with Fabric.js 5.3.0</desc>
<defs>
</defs>

<g transform="matrix(1.9211538461538462 0 0 1.9211538461538462 640 400.5567284147387)" id="logo-logo"  >
<g style=""  paint-order="stroke"   >
		<g transform="matrix(0.5560674134004061 0 0 -0.5560674134004061 -72.42895694488658 -89.94172276411899)"  >
<path style="stroke: none; stroke-width: 1; stroke-dasharray: none; stroke-linecap: butt; stroke-dashoffset: 0; stroke-linejoin: miter; stroke-miterlimit: 4; fill: rgb(9,28,57); fill-rule: nonzero; opacity: 1;"  paint-order="stroke"  transform=" translate(-0.001, 0)" d="M 0 0 L 0.002 0 Z" stroke-linecap="round" />
</g>
		<g transform="matrix(0.5560674134004061 0 0 -0.5560674134004061 -72.5872293273489 -95.01963186029332)"  >
<path style="stroke: none; stroke-width: 1; stroke-dasharray: none; stroke-linecap: butt; stroke-dashoffset: 0; stroke-linejoin: miter; stroke-miterlimit: 4; fill: rgb(21,63,132); fill-rule: nonzero; opacity: 1;"  paint-order="stroke"  transform=" translate(0.28532804805356715, -9.132222821845334)" d="M 0 0 C -1.291 4.317 -2.964 5.82 -5.122 9.975 C -7.213 14.012 -4.336 18.177 -0.40700000000000003 18.262999999999998 C 3.522 18.351999999999997 6.581 14.316999999999998 4.668 10.194999999999999 C 2.701 5.946 1.095 4.368 0 0" stroke-linecap="round" />
</g>
		<g transform="matrix(0.5560674134004061 0 0 -0.5560674134004061 -66.2782909439864 -94.02321486850701)"  >
<path style="stroke: none; stroke-width: 1; stroke-dasharray: none; stroke-linecap: butt; stroke-dashoffset: 0; stroke-linejoin: miter; stroke-miterlimit: 4; fill: rgb(21,63,132); fill-rule: nonzero; opacity: 1;"  paint-order="stroke"  transform=" translate(-6.638907807107923, -7.824623192818159)" d="M 0 0 C 1.695 4.177 1.328 6.397 2.241 10.988 C 3.132 15.445 7.981999999999999 16.897 11.100999999999999 14.509 C 14.225 12.121 14.091 7.062 10.019 5.04 C 5.827 2.951 3.588 2.726 0 0" stroke-linecap="round" />
</g>
		<g transform="matrix(0.5560674134004061 0 0 -0.5560674134004061 -63.02764214766205 -89.7152800873076)"  >
<path style="stroke: none; stroke-width: 1; stroke-dasharray: none; stroke-linecap: butt; stroke-dashoffset: 0; stroke-linejoin: miter; stroke-miterlimit: 4; fill: rgb(21,63,132); fill-rule: nonzero; opacity: 1;"  paint-order="stroke"  transform=" translate(-9.105789663746918, -1.2024783729914663)" d="M 0 0 C 4.215 1.598 5.592 3.376 9.583 5.826 C 13.456 8.205 17.817999999999998 5.633 18.186 1.7209999999999992 C 18.561 -2.1920000000000006 14.756 -5.532000000000001 10.504999999999999 -3.923000000000001 C 6.126 -2.265 4.439 -0.777 0 0" stroke-linecap="round" />
</g>
		<g transform="matrix(0.5560674134004061 0 0 -0.5560674134004061 -74.73402319365528 -89.36046549689144)"  >
<path style="stroke: none; stroke-width: 1; stroke-dasharray: none; stroke-linecap: butt; stroke-dashoffset: 0; stroke-linejoin: miter; stroke-miterlimit: 4; fill: rgb(9,28,57); fill-rule: nonzero; opacity: 1;"  paint-order="stroke"  transform=" translate(-0.0015, 0)" d="M 0 0 Z M 0 0 Z M 0 0 Z M 0 0 Z M 0 0 L 0 0 L 0.003 0 Z" stroke-linecap="round" />
</g>
		<g transform="matrix(0.5560674134004061 0 0 -0.5560674134004061 -78.54816834118395 -93.61301189959582)"  >
<path style="stroke: none; stroke-width: 1; stroke-dasharray: none; stroke-linecap: butt; stroke-dashoffset: 0; stroke-linejoin: miter; stroke-miterlimit: 4; fill: rgb(21,63,132); fill-rule: nonzero; opacity: 1;"  paint-order="stroke"  transform=" translate(6.857641635732328, -7.647537511143849)" d="M 0 0 C -1.876 4.096 -1.606 6.329 -2.725 10.876 C -3.812 15.29 -8.719 16.526 -11.733 14 C -14.745 11.477 -14.387 6.426 -10.23 4.587 C -5.949 2.689 -3.703 2.562 0 0" stroke-linecap="round" />
</g>
		<g transform="matrix(0.5560674134004061 0 0 -0.5560674134004061 -61.59426142848639 -78.1492567348779)"  >
<path style="stroke: none; stroke-width: 1; stroke-dasharray: none; stroke-linecap: butt; stroke-dashoffset: 0; stroke-linejoin: miter; stroke-miterlimit: 4; fill: rgb(9,28,57); fill-rule: nonzero; opacity: 1;"  paint-order="stroke"  transform=" translate(0.001, 0.0015)" d="M 0 0 z M 0 -0.003 z M 0 -0.003 L 0 -0.003 L 0 0 Z M 0 -0.003 L 0 -0.003 L 0 0 Z M 0 0 L 0 0 L 0.002 0 L 0 0 L -0.004 0 L -0.004 -0.003 L 0 -0.003 L 0.002 -0.003 C 0.002 -0.003 0 -0.003 0 0" stroke-linecap="round" />
</g>
		<g transform="matrix(0.5560674134004061 0 0 -0.5560674134004061 2.121110540500297 44.54640635776698)"  >
<path style="stroke: none; stroke-width: 1; stroke-dasharray: none; stroke-linecap: butt; stroke-dashoffset: 0; stroke-linejoin: miter; stroke-miterlimit: 4; fill: rgb(255,255,255); fill-rule: nonzero; opacity: 1;"  paint-order="stroke"  transform=" translate(0, 0)" d="M 0 0 z M -0.003 0 z M -0.003 0 L -0.003 0 L 0 0 Z M -0.003 0 L -0.003 0 L 0 0 Z M 0 0 L 0 0 L -0.003 -0.003 L 0 0 L 0.003 0 L 0 0.003 L -0.003 0 Z" stroke-linecap="round" />
</g>
		<g transform="matrix(0.5560674134004061 0 0 -0.5560674134004061 -5.333918450734927 36.09518259542497)"  >
<path style="stroke: none; stroke-width: 1; stroke-dasharray: none; stroke-linecap: butt; stroke-dashoffset: 0; stroke-linejoin: miter; stroke-miterlimit: 4; fill: rgb(61,124,225); fill-rule: nonzero; opacity: 1;"  paint-order="stroke"  transform=" translate(0, -0.001)" d="M 0 0 Z M 0 0 Z M 0 0 Z M 0 0 Z M 0 0 L 0 0 L 0 0.002 Z" stroke-linecap="round" />
</g>
		<g transform="matrix(0.5560674134004061 0 0 -0.5560674134004061 3.9949658550013396 46.5413956035741)"  >
<path style="stroke: none; stroke-width: 1; stroke-dasharray: none; stroke-linecap: butt; stroke-dashoffset: 0; stroke-linejoin: miter; stroke-miterlimit: 4; fill: rgb(61,124,225); fill-rule: nonzero; opacity: 1;"  paint-order="stroke"  transform=" translate(-16.776534788631558, 18.784875159038016)" d="M 0 0 C 9.066 -6.315 14.571 -6.646 25.051 -11.329 C 35.226 -15.879000000000001 36.065 -28.261 28.656 -34.425 C 21.25 -40.591 9.226 -37.522 6.598 -26.69 C 3.893 -15.533 4.566 -10.058 0 0" stroke-linecap="round" />
</g>
		<g transform="matrix(0.5560674134004061 0 0 -0.5560674134004061 -4.1634521522683485 33.78889299834677)"  >
<path style="stroke: none; stroke-width: 1; stroke-dasharray: none; stroke-linecap: butt; stroke-dashoffset: 0; stroke-linejoin: miter; stroke-miterlimit: 4; fill: rgb(21,63,132); fill-rule: nonzero; opacity: 1;"  paint-order="stroke"  transform=" translate(0.0015, -0.001)" d="M 0 0 Z M 0 0 Z M 0 0 Z M 0 0 Z M 0 0 L 0 0 L -0.003 0.002 Z" stroke-linecap="round" />
</g>
		<g transform="matrix(0.5560674134004061 0 0 -0.5560674134004061 8.25326467041208 32.1738501509019)"  >
<path style="stroke: none; stroke-width: 1; stroke-dasharray: none; stroke-linecap: butt; stroke-dashoffset: 0; stroke-linejoin: miter; stroke-miterlimit: 4; fill: rgb(21,63,132); fill-rule: nonzero; opacity: 1;"  paint-order="stroke"  transform=" translate(-22.328017111515408, -2.905401172456232)" d="M 0 0 C 10.334 3.903 13.721 8.258 23.509 14.251 C 33.019 20.069 43.704 13.757 44.596 4.162 C 45.495 -5.434 36.161 -13.614 25.744 -9.653 C 15.012 -5.575 10.877 -1.923 0 0" stroke-linecap="round" />
</g>
		<g transform="matrix(0.5560674134004061 0 0 -0.5560674134004061 27.590225710932657 43.22896900135581)"  >
<path style="stroke: none; stroke-width: 1; stroke-dasharray: none; stroke-linecap: butt; stroke-dashoffset: 0; stroke-linejoin: miter; stroke-miterlimit: 4; fill: rgb(21,63,132); fill-rule: nonzero; opacity: 1;"  paint-order="stroke"  transform=" translate(-22.365707711986232, -1.9268043890056017)" d="M 0 0 C 10.454 3.578 13.975 7.822 23.944 13.505 C 33.631 19.023 44.114 12.379 44.705 2.76 C 45.301 -6.858 35.718 -14.743 25.43 -10.456 C 14.829 -6.045 10.812 -2.264 0 0" stroke-linecap="round" />
</g>
		<g transform="matrix(0.5560674134004061 0 0 -0.5560674134004061 34.07754462603708 24.978273603289836)"  >
<path style="stroke: none; stroke-width: 1; stroke-dasharray: none; stroke-linecap: butt; stroke-dashoffset: 0; stroke-linejoin: miter; stroke-miterlimit: 4; fill: rgb(61,124,225); fill-rule: nonzero; opacity: 1;"  paint-order="stroke"  transform=" translate(-19.54383296685584, -15.787916658833138)" d="M 0 0 C 7.019 8.534 7.787 13.993 13.291 24.065 C 18.64 33.846 31.05 33.693 36.603 25.816 C 42.158 17.944 38.14 6.201 27.131 4.449 C 15.795 2.64 10.391 3.749 0 0" stroke-linecap="round" />
</g>
		<g transform="matrix(0.5560674134004061 0 0 -0.5560674134004061 40.22040301007718 35.72862295651137)"  >
<path style="stroke: none; stroke-width: 1; stroke-dasharray: none; stroke-linecap: butt; stroke-dashoffset: 0; stroke-linejoin: miter; stroke-miterlimit: 4; fill: rgb(61,124,225); fill-rule: nonzero; opacity: 1;"  paint-order="stroke"  transform=" translate(0, -0.001)" d="M 0 0 Z M 0 0 Z M 0 0 Z M 0 0 Z M 0 0 L 0 0 L 0 0.002 Z" stroke-linecap="round" />
</g>
		<g transform="matrix(0.5560674134004061 0 0 -0.5560674134004061 52.59051311243769 33.320039185475395)"  >
<path style="stroke: none; stroke-width: 1; stroke-dasharray: none; stroke-linecap: butt; stroke-dashoffset: 0; stroke-linejoin: miter; stroke-miterlimit: 4; fill: rgb(21,63,132); fill-rule: nonzero; opacity: 1;"  paint-order="stroke"  transform=" translate(-22.245702237281172, -4.332460022638827)" d="M 0 0 C 10.146 4.376 13.328 8.88 22.832 15.317 C 32.063 21.564 43.028000000000006 15.751 44.358000000000004 6.207000000000001 C 45.698 -3.337 36.751 -11.938 26.16 -8.459 C 15.254 -4.879 10.956 -1.421 0 0" stroke-linecap="round" />
</g>
		<g transform="matrix(0.5560674134004061 0 0 -0.5560674134004061 130.04537291578202 77.42529489826387)"  >
<path style="stroke: none; stroke-width: 1; stroke-dasharray: none; stroke-linecap: butt; stroke-dashoffset: 0; stroke-linejoin: miter; stroke-miterlimit: 4; fill: rgb(61,124,225); fill-rule: nonzero; opacity: 1;"  paint-order="stroke"  transform=" translate(-22.264615479985395, -4.040477422406001)" d="M 0 0 C 10.186 4.279 13.412 8.752 22.974 15.102 C 32.265 21.262 43.172 15.345 44.413 5.789 C 45.664 -3.767 36.635 -12.284 26.08 -8.707 C 15.205 -5.024 10.94 -1.526 0 0" stroke-linecap="round" />
</g>
		<g transform="matrix(0.5560674134004061 0 0 -0.5560674134004061 115.64627667156975 56.49857494813676)"  >
<path style="stroke: none; stroke-width: 1; stroke-dasharray: none; stroke-linecap: butt; stroke-dashoffset: 0; stroke-linejoin: miter; stroke-miterlimit: 4; fill: rgb(21,63,132); fill-rule: nonzero; opacity: 1;"  paint-order="stroke"  transform=" translate(0, -0.001)" d="M 0 0 Z M 0 0 Z M 0 0 Z M 0 0 Z M 0 0 L 0 0 L 0 0.002 Z" stroke-linecap="round" />
</g>
		<g transform="matrix(0.5560674134004061 0 0 -0.5560674134004061 128.02676333739038 54.25182047137548)"  >
<path style="stroke: none; stroke-width: 1; stroke-dasharray: none; stroke-linecap: butt; stroke-dashoffset: 0; stroke-linejoin: miter; stroke-miterlimit: 4; fill: rgb(21,63,132); fill-rule: nonzero; opacity: 1;"  paint-order="stroke"  transform=" translate(-22.264362858655353, -4.041435426744416)" d="M 0 0 C 10.187 4.279 13.409 8.754 22.976 15.102 C 32.264 21.263 43.172 15.346 44.413 5.788 C 45.661 -3.766 36.634 -12.282 26.079 -8.706 C 15.205 -5.022 10.941 -1.524 0 0" stroke-linecap="round" />
</g>
		<g transform="matrix(0.5560674134004061 0 0 -0.5560674134004061 129.17866000830162 34.75768287221041)"  >
<path style="stroke: none; stroke-width: 1; stroke-dasharray: none; stroke-linecap: butt; stroke-dashoffset: 0; stroke-linejoin: miter; stroke-miterlimit: 4; fill: rgb(61,124,225); fill-rule: nonzero; opacity: 1;"  paint-order="stroke"  transform=" translate(-21.461768296939134, -10.64258340805947)" d="M 0 0 C 9.017 6.384 11.194 11.449 19.158 19.72 C 26.894000000000002 27.744999999999997 38.822 24.331 42.105000000000004 15.270999999999999 C 45.395 6.213 38.424 -4.058 27.345 -2.851 C 15.931 -1.611 11.011 0.881 0 0" stroke-linecap="round" />
</g>
		<g transform="matrix(0.5560674134004061 0 0 -0.5560674134004061 64.67001989639692 43.608876698773855)"  >
<path style="stroke: none; stroke-width: 1; stroke-dasharray: none; stroke-linecap: butt; stroke-dashoffset: 0; stroke-linejoin: miter; stroke-miterlimit: 4; fill: rgb(61,124,225); fill-rule: nonzero; opacity: 1;"  paint-order="stroke"  transform=" translate(0, -0.0005)" d="M 0 0 Z M 0 0 Z M 0 0 Z M 0 0 Z M 0 0 L 0 0 L 0 0.001 Z" stroke-linecap="round" />
</g>
		<g transform="matrix(0.5560674134004061 0 0 -0.5560674134004061 77.06256066229349 41.549072130227756)"  >
<path style="stroke: none; stroke-width: 1; stroke-dasharray: none; stroke-linecap: butt; stroke-dashoffset: 0; stroke-linejoin: miter; stroke-miterlimit: 4; fill: rgb(61,124,225); fill-rule: nonzero; opacity: 1;"  paint-order="stroke"  transform=" translate(-22.286040266439823, -3.704735347923389)" d="M 0 0 C 10.232 4.168 13.505 8.606 23.136 14.851 C 32.491 20.912 43.335 14.876 44.475 5.307 C 45.618 -4.262 36.5 -12.68 25.983 -8.988 C 15.149 -5.188 10.924 -1.644 0 0" stroke-linecap="round" />
</g>
		<g transform="matrix(0.5560674134004061 0 0 -0.5560674134004061 103.00333054102776 47.54647683453604)"  >
<path style="stroke: none; stroke-width: 1; stroke-dasharray: none; stroke-linecap: butt; stroke-dashoffset: 0; stroke-linejoin: miter; stroke-miterlimit: 4; fill: rgb(61,124,225); fill-rule: nonzero; opacity: 1;"  paint-order="stroke"  transform=" translate(-22.287044972056115, -3.7044439371349007)" d="M 0 0 C 10.234 4.169 13.508 8.606 23.137 14.851 C 32.492000000000004 20.912 43.338 14.876000000000001 44.477000000000004 5.307 C 45.62 -4.262 36.503 -12.68 25.986 -8.989 C 15.152 -5.189 10.926 -1.644 0 0" stroke-linecap="round" />
</g>
		<g transform="matrix(0.5560674134004061 0 0 -0.5560674134004061 95.97489146185836 60.56754263895283)"  >
<path style="stroke: none; stroke-width: 1; stroke-dasharray: none; stroke-linecap: butt; stroke-dashoffset: 0; stroke-linejoin: miter; stroke-miterlimit: 4; fill: rgb(21,63,132); fill-rule: nonzero; opacity: 1;"  paint-order="stroke"  transform=" translate(0, -0.001)" d="M 0 0 Z M 0 0 Z M 0 0 Z M 0 0 Z M 0 0 L 0 0 L 0 0.002 Z" stroke-linecap="round" />
</g>
		<g transform="matrix(0.5560674134004061 0 0 -0.5560674134004061 107.3382750835537 68.55725056891646)"  >
<path style="stroke: none; stroke-width: 1; stroke-dasharray: none; stroke-linecap: butt; stroke-dashoffset: 0; stroke-linejoin: miter; stroke-miterlimit: 4; fill: rgb(21,63,132); fill-rule: nonzero; opacity: 1;"  paint-order="stroke"  transform=" translate(-20.435262609990282, 14.36723618400099)" d="M 0 0 C 10.734 -2.609 15.986 -0.927 27.451 -1.504 C 38.584 -2.067 43.839 -13.309 39.161 -21.733 C 34.489 -30.16 22.167 -31.65 15.804 -22.497 C 9.244 -13.076 7.895 -7.728 0 0" stroke-linecap="round" />
</g>
		<g transform="matrix(0.5560674134004061 0 0 -0.5560674134004061 103.18905708781318 29.326259506182396)"  >
<path style="stroke: none; stroke-width: 1; stroke-dasharray: none; stroke-linecap: butt; stroke-dashoffset: 0; stroke-linejoin: miter; stroke-miterlimit: 4; fill: rgb(21,63,132); fill-rule: nonzero; opacity: 1;"  paint-order="stroke"  transform=" translate(-20.938445027282597, -13.159146180375837)" d="M 0 0 C 8.423 7.151 10.148 12.388 17.354 21.321 C 24.354 29.997 36.54 27.642000000000003 40.604 18.904000000000003 C 44.673 10.171 38.636 -0.672 27.49 -0.442 C 16.011 -0.21 10.893 1.843 0 0" stroke-linecap="round" />
</g>
		<g transform="matrix(0.5560674134004061 0 0 -0.5560674134004061 101.78560662323383 84.68636123711053)"  >
<path style="stroke: none; stroke-width: 1; stroke-dasharray: none; stroke-linecap: butt; stroke-dashoffset: 0; stroke-linejoin: miter; stroke-miterlimit: 4; fill: rgb(21,63,132); fill-rule: nonzero; opacity: 1;"  paint-order="stroke"  transform=" translate(-19.998559558078174, 15.107211178626324)" d="M 0 0 C 10.575 -3.198 15.909 -1.809 27.327 -3.016 C 38.411 -4.19 43.044 -15.706 37.906 -23.859 C 32.775 -32.017 20.393 -32.822 14.54 -23.336 C 8.511 -13.565 7.454 -8.152 0 0" stroke-linecap="round" />
</g>
		<g transform="matrix(0.5560674134004061 0 0 -0.5560674134004061 68.06642405070528 56.13529610696219)"  >
<path style="stroke: none; stroke-width: 1; stroke-dasharray: none; stroke-linecap: butt; stroke-dashoffset: 0; stroke-linejoin: miter; stroke-miterlimit: 4; fill: rgb(61,124,225); fill-rule: nonzero; opacity: 1;"  paint-order="stroke"  transform=" translate(-0.0005, -0.001)" d="M 0 0 Z M 0 0 Z M 0 0 Z M 0 0 Z M 0 0 L 0 0 L 0.001 0.002 Z" stroke-linecap="round" />
</g>
		<g transform="matrix(0.5560674134004061 0 0 -0.5560674134004061 80.19142814252729 60.87304494005224)"  >
<path style="stroke: none; stroke-width: 1; stroke-dasharray: none; stroke-linecap: butt; stroke-dashoffset: 0; stroke-linejoin: miter; stroke-miterlimit: 4; fill: rgb(21,63,132); fill-rule: nonzero; opacity: 1;"  paint-order="stroke"  transform=" translate(-21.80541753270783, 8.519097957401042)" d="M 0 0 C 11.05 -0.089 15.776 2.746 27.068 4.805 C 38.037 6.797 45.723 -2.946 43.092 -12.217 C 40.467 -21.488 28.812 -25.75 20.523 -18.295 C 11.984 -10.62 9.45 -5.723 0 0" stroke-linecap="round" />
</g>
		<g transform="matrix(0.5560674134004061 0 0 -0.5560674134004061 72.29135374482263 75.27998765231087)"  >
<path style="stroke: none; stroke-width: 1; stroke-dasharray: none; stroke-linecap: butt; stroke-dashoffset: 0; stroke-linejoin: miter; stroke-miterlimit: 4; fill: rgb(61,124,225); fill-rule: nonzero; opacity: 1;"  paint-order="stroke"  transform=" translate(-18.927473193614198, 16.602524079113177)" d="M 0 0 C 10.124 -4.421 15.587 -3.669 26.779 -6.212 C 37.652 -8.685 40.893 -20.664 34.834 -28.156 C 28.779 -35.652 16.383 -34.995 11.69 -24.884 C 6.853 -14.473 6.446 -8.974 0 0" stroke-linecap="round" />
</g>
		<g transform="matrix(0.5560674134004061 0 0 -0.5560674134004061 67.14246243659926 30.664294595708583)"  >
<path style="stroke: none; stroke-width: 1; stroke-dasharray: none; stroke-linecap: butt; stroke-dashoffset: 0; stroke-linejoin: miter; stroke-miterlimit: 4; fill: rgb(61,124,225); fill-rule: nonzero; opacity: 1;"  paint-order="stroke"  transform=" translate(0, -0.001)" d="M 0 0 Z M 0 0 Z M 0 0 Z M 0 0 Z M 0 0 L 0 0 L 0 0.002 Z" stroke-linecap="round" />
</g>
		<g transform="matrix(0.5560674134004061 0 0 -0.5560674134004061 78.75604142742878 23.222460066263267)"  >
<path style="stroke: none; stroke-width: 1; stroke-dasharray: none; stroke-linecap: butt; stroke-dashoffset: 0; stroke-linejoin: miter; stroke-miterlimit: 4; fill: rgb(61,124,225); fill-rule: nonzero; opacity: 1;"  paint-order="stroke"  transform=" translate(-20.8851997275139, -13.383971830587543)" d="M 0 0 C 8.365 7.219 10.048 12.469 17.183 21.462 C 24.115000000000002 30.192 36.318 27.935 40.451 19.23 C 44.591 10.527 38.638 -0.363 27.491 -0.222 C 16.013 -0.079 10.877 1.932 0 0" stroke-linecap="round" />
</g>
		<g transform="matrix(0.5560674134004061 0 0 -0.5560674134004061 16.770317299344697 48.754112868226656)"  >
<path style="stroke: none; stroke-width: 1; stroke-dasharray: none; stroke-linecap: butt; stroke-dashoffset: 0; stroke-linejoin: miter; stroke-miterlimit: 4; fill: rgb(61,124,225); fill-rule: nonzero; opacity: 1;"  paint-order="stroke"  transform=" translate(-0.0015, -0.0005)" d="M 0 0 Z M 0 0 Z M 0 0 Z M 0 0 Z M 0 0 L 0 0 L 0.003 0.001 Z" stroke-linecap="round" />
</g>
		<g transform="matrix(0.5560674134004061 0 0 -0.5560674134004061 25.607123655240628 59.58074281063699)"  >
<path style="stroke: none; stroke-width: 1; stroke-dasharray: none; stroke-linecap: butt; stroke-dashoffset: 0; stroke-linejoin: miter; stroke-miterlimit: 4; fill: rgb(61,124,225); fill-rule: nonzero; opacity: 1;"  paint-order="stroke"  transform=" translate(-15.893109799355209, 19.46949533061027)" d="M 0 0 C 8.592 -6.949 14.06 -7.673 24.176 -13.093 C 34.001 -18.361 33.947 -30.772 26.118 -36.387 C 18.292 -42.011 6.517 -38.088 4.674 -27.095 C 2.771 -15.772 3.835 -10.361 0 0" stroke-linecap="round" />
</g>
		<g transform="matrix(0.5560674134004061 0 0 -0.5560674134004061 37.02518404593707 55.93222028758839)"  >
<path style="stroke: none; stroke-width: 1; stroke-dasharray: none; stroke-linecap: butt; stroke-dashoffset: 0; stroke-linejoin: miter; stroke-miterlimit: 4; fill: rgb(21,63,132); fill-rule: nonzero; opacity: 1;"  paint-order="stroke"  transform=" translate(0, -0.001)" d="M 0 0 Z M 0 0 Z M 0 0 Z M 0 0 Z M 0 0 L 0 0 L 0 0.002 Z" stroke-linecap="round" />
</g>
		<g transform="matrix(0.5560674134004061 0 0 -0.5560674134004061 47.03938573941247 65.74209278885087)"  >
<path style="stroke: none; stroke-width: 1; stroke-dasharray: none; stroke-linecap: butt; stroke-dashoffset: 0; stroke-linejoin: miter; stroke-miterlimit: 4; fill: rgb(21,63,132); fill-rule: nonzero; opacity: 1;"  paint-order="stroke"  transform=" translate(-18.008970589082836, 17.640516594677273)" d="M 0 0 C 9.694 -5.303 15.202 -5.038 26.125 -8.564 C 36.732 -11.994 38.897 -24.214 32.197 -31.138 C 25.501000000000005 -38.066 13.214000000000002 -36.312000000000005 9.437000000000001 -25.825000000000003 C 5.543 -15.025 5.624 -9.51 0 0" stroke-linecap="round" />
</g>
		<g transform="matrix(0.5560674134004061 0 0 -0.5560674134004061 41.330647207672484 48.29608013980865)"  >
<path style="stroke: none; stroke-width: 1; stroke-dasharray: none; stroke-linecap: butt; stroke-dashoffset: 0; stroke-linejoin: miter; stroke-miterlimit: 4; fill: rgb(61,124,225); fill-rule: nonzero; opacity: 1;"  paint-order="stroke"  transform=" translate(0.0015, 0)" d="M 0 0 Z M 0 0 Z M 0 0 Z M 0 0 Z M 0 0 L 0 0 L -0.003 0 Z" stroke-linecap="round" />
</g>
		<g transform="matrix(0.5560674134004061 0 0 -0.5560674134004061 53.605899988462795 51.805683414069364)"  >
<path style="stroke: none; stroke-width: 1; stroke-dasharray: none; stroke-linecap: butt; stroke-dashoffset: 0; stroke-linejoin: miter; stroke-miterlimit: 4; fill: rgb(61,124,225); fill-rule: nonzero; opacity: 1;"  paint-order="stroke"  transform=" translate(-22.073616226872527, 6.311470857102055)" d="M 0 0 C 11.023 0.714 15.532 3.888 26.646 6.763 C 37.438 9.549 45.814 0.392 43.864 -9.046 C 41.922 -18.484 30.607 -23.583 21.8 -16.752 C 12.726 -9.719 9.84 -5.018 0 0" stroke-linecap="round" />
</g>
		<g transform="matrix(0.5560674134004061 0 0 -0.5560674134004061 -92.45133190593634 -78.74847497955813)"  >
<path style="stroke: none; stroke-width: 1; stroke-dasharray: none; stroke-linecap: butt; stroke-dashoffset: 0; stroke-linejoin: miter; stroke-miterlimit: 4; fill: rgb(9,28,57); fill-rule: nonzero; opacity: 1;"  paint-order="stroke"  transform=" translate(-0.0005, 0)" d="M 0 0 z M 0.001 0 z M 0.001 0 L 0.001 0 L 0 0 Z M 0.001 0 L 0.001 0 L 0 0 Z M 0 0 L 0 0 L 0.001 0 z" stroke-linecap="round" />
</g>
		<g transform="matrix(0.5560674134004061 0 0 -0.5560674134004061 -77.61906759789974 -78.74896146463612)"  >
<path style="stroke: none; stroke-width: 1; stroke-dasharray: none; stroke-linecap: butt; stroke-dashoffset: 0; stroke-linejoin: miter; stroke-miterlimit: 4; fill: rgb(61,124,225); fill-rule: nonzero; opacity: 1;"  paint-order="stroke"  transform=" translate(-26.674000281801916, -0.0008748670866935981)" d="M 0 0 C 12.688 3.484 17.185 8.273 29.461 14.298 C 41.377 20.147 53.351 11.479 53.348 0 C 53.351 -11.479 41.377 -20.145 29.461 -14.296 C 17.185 -8.271 12.688 -3.482 0 0" stroke-linecap="round" />
</g>
		<g transform="matrix(0.5560674134004061 0 0 -0.5560674134004061 -53.04442309199061 50.36175892566041)"  >
<path style="stroke: none; stroke-width: 1; stroke-dasharray: none; stroke-linecap: butt; stroke-dashoffset: 0; stroke-linejoin: miter; stroke-miterlimit: 4; fill: rgb(21,63,132); fill-rule: nonzero; opacity: 1;"  paint-order="stroke"  transform=" translate(0.00005716030608837741, -26.293000793875105)" d="M 0 0 C -3.437 12.506 -8.151 16.938 -14.092 29.04 C -19.858 40.786 -11.315 52.591 0 52.586 C 11.314 52.591 19.858 40.786 14.092 29.04 C 8.156 16.938 3.435 12.506 0 0" stroke-linecap="round" />
</g>
		<g transform="matrix(0.5560674134004061 0 0 -0.5560674134004061 -6.8997486801291075 34.48075207409954)"  >
<path style="stroke: none; stroke-width: 1; stroke-dasharray: none; stroke-linecap: butt; stroke-dashoffset: 0; stroke-linejoin: miter; stroke-miterlimit: 4; fill: rgb(21,63,132); fill-rule: nonzero; opacity: 1;"  paint-order="stroke"  transform=" translate(-0.0005, 0)" d="M 0 0 z M -0.001 0 z M -0.001 0 L -0.001 0 L 0 0 Z M -0.001 0 L -0.001 0 L 0 0 Z M 0 0 L 0 0 L -0.001 -0.003 L 0 0 L 0.002 0 L 0 0.003 L -0.001 0 Z" stroke-linecap="round" />
</g>
		<g transform="matrix(0.5560674134004061 0 0 -0.5560674134004061 -71.50049118473197 -81.1049774640664)"  >
<path style="stroke: none; stroke-width: 1; stroke-dasharray: none; stroke-linecap: butt; stroke-dashoffset: 0; stroke-linejoin: miter; stroke-miterlimit: 4; fill: rgb(21,63,132); fill-rule: nonzero; opacity: 1;"  paint-order="stroke"  transform=" translate(3.726, 0.0004999999999997229)" d="M 0 0 C 0 -2.056 -1.669 -3.726 -3.727 -3.726 C -5.785 -3.726 -7.452 -2.056 -7.452 0 C -7.452 2.058 -5.785 3.725 -3.727 3.725 C -1.669 3.725 0 2.058 0 0" stroke-linecap="round" />
</g>
		<g transform="matrix(0.5560674134004061 0 0 -0.5560674134004061 -68.37146652299555 -24.72391225086571)"  >
<path style="stroke: none; stroke-width: 1; stroke-dasharray: none; stroke-linecap: butt; stroke-dashoffset: 0; stroke-linejoin: miter; stroke-miterlimit: 4; fill: rgb(61,124,225); fill-rule: nonzero; opacity: 1;"  paint-order="stroke"  transform=" translate(19.859240067460384, -86.04350000000001)" d="M 0 0 C -43.195 14.585 -51.029 64.809 -22.95 92.885 C -9.520999999999999 106.313 8.970000000000002 111.522 26.206999999999997 108.583 C 12.589999999999996 131.984 1.266999999999996 149.572 -7.670000000000005 182.122 C -20.215000000000003 136.42200000000003 -37.464000000000006 120.22500000000002 -59.164 76.01200000000001 C -80.23 33.091000000000015 -49.016000000000005 -10.034999999999982 -7.670000000000002 -10.034999999999982 C 0.7479999999999976 -10.034999999999982 8.747 -8.246999999999982 15.969999999999999 -5.035999999999983 C 10.945 -3.559 5.65 -1.909 0 0" stroke-linecap="round" />
</g>
		<g transform="matrix(0.5560674134004061 0 0 -0.5560674134004061 -41.55029365388623 -0.1646517761329278)"  >
<path style="stroke: none; stroke-width: 1; stroke-dasharray: none; stroke-linecap: butt; stroke-dashoffset: 0; stroke-linejoin: miter; stroke-miterlimit: 4; fill: rgb(21,63,132); fill-rule: nonzero; opacity: 1;"  paint-order="stroke"  transform=" translate(30.84426871258772, 28.50137679146583)" d="M 0 0 C -5.353 15.676 -16.182 25.904 -28.683 30.681 C -45.585 37.135 -65.55199999999999 33.602000000000004 -79.243 19.907000000000004 C -103.07 -3.915999999999997 -96.208 -46.746 -59.336999999999996 -59.339999999999996 C -48.55799999999999 -63.022999999999996 -39.283 -65.609 -30.763999999999996 -67.865 C -9.268999999999995 -73.55499999999999 7.437000000000005 -77.12599999999999 31.469 -90.806 C 12.368 -57.249 12.973 -37.977 0 0" stroke-linecap="round" />
</g>
		<g transform="matrix(0.5560674134004061 0 0 -0.5560674134004061 -42.18372744240099 84.94918639129003)"  >
<path style="stroke: none; stroke-width: 1; stroke-dasharray: none; stroke-linecap: butt; stroke-dashoffset: 0; stroke-linejoin: miter; stroke-miterlimit: 4; fill: rgb(21,63,132); fill-rule: nonzero; opacity: 1;"  paint-order="stroke"  transform=" translate(180.27, -27.24233901696902)" d="M 0 0 C -14.452 10.167 -24.833 16.553 -44.379 24.806 C -54.878 29.424 -87.41999999999999 41.443 -118.62100000000001 47.133 C -149.704 53.353 -178.602 54.083000000000006 -178.562 54.164 C -178.53 54.079 -207.39000000000001 55.784 -238.88100000000003 52.096000000000004 C -270.454 48.970000000000006 -303.832 39.404 -314.619 35.498000000000005 C -334.71000000000004 28.638000000000005 -345.48800000000006 22.909000000000006 -360.54 13.660000000000004 C -344.065 20.083000000000006 -332.885 24.106 -313.05 30.802000000000003 C -302.403 34.612 -269.493 44.047000000000004 -238.32500000000002 47.145 C -207.24200000000002 50.79600000000001 -178.74200000000002 49.135000000000005 -178.77 49.218 C -178.80700000000002 49.136 -150.27 48.394000000000005 -119.57600000000001 42.243 C -88.762 36.614000000000004 -56.64600000000001 24.749000000000002 -46.272000000000006 20.231 C -26.953 12.153 -16.049 7.433 0 0" stroke-linecap="round" />
</g>
</g>
</g>
<g transform="matrix(1.9211538461538462 0 0 1.9211538461538462 639.8991394230769 686.4681777049689)" id="text-logo"  >
<g style=""  paint-order="stroke"   >
		<g transform="matrix(1 0 0 1 0 0)" id="text-logo-path-0"  >
<path style="stroke: none; stroke-width: 0; stroke-dasharray: none; stroke-linecap: butt; stroke-dashoffset: 0; stroke-linejoin: miter; stroke-miterlimit: 4; fill: rgb(21,63,132); fill-rule: nonzero; opacity: 1;"  paint-order="stroke"  transform=" translate(-206.89000000000001, 12.52063435400592)" d="M 16.42 -4.66 C 15.3 -3.68 13.86 -3.15 12.08 -3.15 C 7.7 -3.15 5.08 -6.58 5.08 -12.25 C 5.08 -18.13 7.84 -21.35 12.08 -21.35 C 13.9 -21.35 15.37 -20.79 16.45 -19.81 C 16.73 -19.57 17.08 -19.43 17.5 -19.43 C 18.34 -19.43 19.08 -20.13 19.08 -21 C 19.08 -21.42 18.87 -21.88 18.55 -22.16 C 16.84 -23.7 14.63 -24.5 12.08 -24.5 C 6.02 -24.5 1.93 -19.85 1.93 -12.25 C 1.93 -5.08 5.74 0 12.08 0 C 14.63 0 16.84 -0.84 18.52 -2.31 C 18.83 -2.59 19.04 -3.01 19.04 -3.5 C 19.04 -4.34 18.34 -5.08 17.47 -5.08 C 17.12 -5.08 16.7 -4.9 16.42 -4.66 Z M 33.08 0 L 33.08 -9.52 L 38.33 -9.52 L 43.44 0 L 47.01 0 L 41.83 -9.7 C 45.05 -10.43 47.15 -13.41 47.15 -17.05 C 47.15 -21.18 44.14 -24.5 40.25 -24.5 L 32.1 -24.5 C 30.87 -24.5 29.93 -23.56 29.93 -22.4 L 29.93 0 Z M 33.08 -12.67 L 33.08 -21.35 L 40.25 -21.35 C 42.32 -21.35 44 -19.5 44 -17.05 C 44 -14.46 42.46 -12.67 40.25 -12.67 Z M 58 0 L 72.17 0 C 73.01 0 73.75 -0.7 73.75 -1.58 C 73.71 -2.49 73.01 -3.15 72.17 -3.15 L 61.15 -3.15 L 61.15 -10.68 L 69.72 -10.68 C 70.56 -10.68 71.3 -11.38 71.3 -12.25 C 71.26 -13.16 70.56 -13.83 69.72 -13.83 L 61.15 -13.83 L 61.15 -21.35 L 72.17 -21.35 C 73.01 -21.35 73.75 -22.05 73.75 -22.93 C 73.71 -23.84 73.01 -24.5 72.17 -24.5 L 60.1 -24.5 C 58.94 -24.5 58 -23.56 58 -22.4 Z M 86.7 -5.32 L 84.6 -2.94 C 86.56 -1.19 89.29 -0.04 92.19 -0.04 C 96.74 -0.04 100.17 -3.12 100.17 -6.65 C 100.17 -11.2 96.36 -12.78 93.28 -14 C 90.27 -15.16 88.24 -15.93 88.24 -18.06 C 88.24 -19.88 90.37 -21.35 92.93 -21.35 C 94.29 -21.35 95.27 -21.07 96.25 -20.41 C 96.5 -20.23 96.81 -20.13 97.13 -20.13 C 97.97 -20.13 98.7 -20.83 98.7 -21.7 C 98.7 -22.23 98.42 -22.72 98 -23 C 96.6 -23.94 95.03 -24.5 92.93 -24.5 C 88.94 -24.5 85.09 -21.95 85.09 -18.06 C 85.09 -13.69 89.15 -12.22 92.16 -11.06 C 95.03 -9.91 97.02 -9.03 97.02 -6.65 C 97.02 -4.94 95.06 -3.19 92.19 -3.19 C 90.13 -3.19 88.1 -4.06 86.7 -5.32 Z M 120.96 0 L 120.96 -21.35 L 126.21 -21.35 C 127.05 -21.35 127.79 -22.05 127.79 -22.93 C 127.75 -23.84 127.05 -24.5 126.21 -24.5 L 112.6 -24.5 C 111.72 -24.5 111.02 -23.8 111.02 -22.93 C 110.99 -22.02 111.72 -21.35 112.6 -21.35 L 117.81 -21.35 L 117.81 0 Z M 155.78 0 L 155.78 -9.52 L 162.96 -9.52 C 167.06 -9.52 169.86 -12.85 169.86 -17.05 C 169.86 -21.18 166.84 -24.5 162.96 -24.5 L 154.74 -24.5 C 153.58 -24.5 152.64 -23.56 152.64 -22.4 L 152.64 0 Z M 155.78 -12.67 L 155.78 -21.35 L 162.96 -21.35 C 165.03 -21.35 166.71 -19.5 166.71 -17.05 C 166.71 -14.46 165.17 -12.67 162.96 -12.67 Z M 180.71 0 L 194.88 0 C 195.72 0 196.46 -0.7 196.46 -1.58 C 196.42 -2.49 195.72 -3.15 194.88 -3.15 L 183.85 -3.15 L 183.85 -10.68 L 192.43 -10.68 C 193.27 -10.68 194 -11.38 194 -12.25 C 193.97 -13.16 193.27 -13.83 192.43 -13.83 L 183.85 -13.83 L 183.85 -21.35 L 194.88 -21.35 C 195.72 -21.35 196.46 -22.05 196.46 -22.93 C 196.42 -23.84 195.72 -24.5 194.88 -24.5 L 182.81 -24.5 C 181.65 -24.5 180.71 -23.56 180.71 -22.4 Z M 217.25 0 L 217.25 -21.35 L 222.5 -21.35 C 223.34 -21.35 224.07 -22.05 224.07 -22.93 C 224.03 -23.84 223.34 -24.5 222.5 -24.5 L 208.88 -24.5 C 208 -24.5 207.31 -23.8 207.31 -22.93 C 207.27 -22.02 208 -21.35 208.88 -21.35 L 214.09 -21.35 L 214.09 0 Z M 252.07 0 L 252.07 -10.68 L 265.37 -10.68 L 265.37 0 L 268.52 0 L 268.52 -23.1 C 268.52 -23.94 267.82 -24.68 266.94 -24.68 C 266.04 -24.64 265.37 -23.94 265.37 -23.1 L 265.37 -13.83 L 252.07 -13.83 L 252.07 -23.1 C 252.07 -23.94 251.37 -24.68 250.5 -24.68 C 249.59 -24.64 248.92 -23.94 248.92 -23.1 L 248.92 0 Z M 279.37 0 L 293.55 0 C 294.38 0 295.12 -0.7 295.12 -1.58 C 295.08 -2.49 294.38 -3.15 293.55 -3.15 L 282.52 -3.15 L 282.52 -10.68 L 291.09 -10.68 C 291.94 -10.68 292.67 -11.38 292.67 -12.25 C 292.63 -13.16 291.94 -13.83 291.09 -13.83 L 282.52 -13.83 L 282.52 -21.35 L 293.55 -21.35 C 294.38 -21.35 295.12 -22.05 295.12 -22.93 C 295.08 -23.84 294.38 -24.5 293.55 -24.5 L 281.47 -24.5 C 280.31 -24.5 279.37 -23.56 279.37 -22.4 Z M 327.18 0 L 318.88 -23.35 C 318.12 -25.59 315.04 -25.62 314.27 -23.35 L 305.97 0 L 309.33 0 L 311.54 -6.16 L 321.62 -6.16 L 323.82 0 Z M 312.66 -9.31 L 316.58 -20.34 L 320.5 -9.31 Z M 338.03 0 L 352.21 0 C 353.05 0 353.78 -0.7 353.78 -1.58 C 353.75 -2.49 353.05 -3.15 352.21 -3.15 L 341.18 -3.15 L 341.18 -23.1 C 341.18 -23.94 340.48 -24.68 339.61 -24.68 C 338.69 -24.64 338.03 -23.94 338.03 -23.1 Z M 374.57 0 L 374.57 -21.35 L 379.82 -21.35 C 380.66 -21.35 381.4 -22.05 381.4 -22.93 C 381.36 -23.84 380.66 -24.5 379.82 -24.5 L 366.21 -24.5 C 365.33 -24.5 364.63 -23.8 364.63 -22.93 C 364.6 -22.02 365.33 -21.35 366.21 -21.35 L 371.42 -21.35 L 371.42 0 Z M 395.4 0 L 395.4 -10.68 L 408.7 -10.68 L 408.7 0 L 411.85 0 L 411.85 -23.1 C 411.85 -23.94 411.15 -24.68 410.27 -24.68 C 409.36 -24.64 408.7 -23.94 408.7 -23.1 L 408.7 -13.83 L 395.4 -13.83 L 395.4 -23.1 C 395.4 -23.94 394.7 -24.68 393.82 -24.68 C 392.91 -24.64 392.25 -23.94 392.25 -23.1 L 392.25 0 Z" stroke-linecap="round" />
</g>
</g>
</g>
</svg>